<svg width="610" height="126" viewBox="0 0 610 126" fill="none" xmlns="http://www.w3.org/2000/svg">
<path d="M91.5851 55.6694C89.8853 57.3852 88.5836 59.456 87.7726 61.7342C86.9617 64.0124 86.6615 66.442 86.8935 68.8499L86.8127 68.769C87.0512 71.6033 86.6703 74.4557 85.6966 77.1271C84.7228 79.7984 83.1798 82.2244 81.175 84.2357C79.1703 86.247 76.7522 87.7952 74.0896 88.7721C71.4269 89.749 68.5838 90.1312 65.7588 89.892L65.8395 89.9729C62.4602 89.6574 59.0661 90.3952 56.12 92.0858C53.174 93.7764 50.8193 96.3374 49.3772 99.4198C47.935 102.502 47.4755 105.956 48.0614 109.31C48.6472 112.664 50.2499 115.755 52.6508 118.161C55.0518 120.568 58.1342 122.173 61.4777 122.758C64.8212 123.343 68.2631 122.878 71.3341 121.429C74.405 119.979 76.9556 117.614 78.638 114.657C80.3204 111.7 81.0528 108.294 80.7352 104.904L80.8204 104.985C80.5819 102.151 80.9628 99.2982 81.9366 96.6268C82.9103 93.9554 84.4534 91.5294 86.4581 89.5181C88.4628 87.5068 90.8809 85.9587 93.5436 84.9818C96.2062 84.0049 99.0493 83.6227 101.874 83.862L101.789 83.7809C104.55 84.03 107.328 83.5759 109.867 82.4608C112.406 81.3457 114.623 79.6056 116.314 77.4018C118.004 75.1979 119.112 72.6017 119.536 69.8537C119.96 67.1057 119.685 64.2949 118.738 61.6816C117.791 59.0684 116.201 56.7374 114.117 54.9046C112.032 53.0717 109.521 51.7965 106.814 51.1969C104.108 50.5974 101.294 50.6929 98.6344 51.4748C95.9746 52.2566 93.5546 53.6994 91.5986 55.6694H91.5851Z" fill="#36AF84"/>
<path d="M58.4973 79.3621L58.4121 79.2811C60.8132 79.5238 63.238 79.2282 65.5113 78.4155C67.7846 77.6028 69.8494 76.2934 71.5565 74.5821C73.2636 72.8707 74.5702 70.8001 75.3819 68.52C76.1937 66.2399 76.4902 63.8073 76.2501 61.3981L76.3353 61.4791C76.0968 58.6448 76.4778 55.7924 77.4515 53.121C78.4252 50.4496 79.9683 48.0236 81.973 46.0123C83.9777 44.001 86.3958 42.4529 89.0585 41.476C91.7211 40.499 94.5642 40.1168 97.3893 40.3561L97.3041 40.2751C100.684 40.5935 104.079 39.8582 107.027 38.1696C109.974 36.4809 112.331 33.921 113.775 30.8391C115.22 27.7572 115.681 24.3033 115.097 20.9485C114.513 17.5937 112.912 14.5014 110.512 12.0933C108.111 9.68518 105.029 8.07854 101.685 7.49251C98.3415 6.90648 94.8989 7.36958 91.827 8.81866C88.7552 10.2677 86.2037 12.6323 84.5205 15.5897C82.8373 18.5471 82.1045 21.9534 82.4218 25.3441L82.3411 25.2586C82.5804 28.0931 82.2 30.9459 81.2266 33.6176C80.2531 36.2893 78.71 38.7157 76.7051 40.7272C74.7002 42.7386 72.2818 44.2868 69.6188 45.2634C66.9558 46.24 64.1124 46.6217 61.2872 46.3816L61.3679 46.4671C58.9668 46.2244 56.5419 46.52 54.2686 47.3327C51.9954 48.1454 49.9306 49.4548 48.2235 51.1662C46.5164 52.8776 45.2097 54.9482 44.398 57.2283C43.5863 59.5084 43.2897 61.9409 43.5299 64.3501L43.4491 64.2691C43.6868 67.1033 43.3054 69.9553 42.3313 72.6263C41.3573 75.2973 39.8142 77.723 37.8097 79.7342C35.8051 81.7453 33.3874 83.2935 30.7251 84.2707C28.0628 85.2479 25.22 85.6306 22.3952 85.3921L22.4759 85.4731C19.0963 85.1547 15.7011 85.89 12.7533 87.5787C9.80558 89.2673 7.4488 91.8272 6.00445 94.9091C4.5601 97.991 4.0985 101.445 4.68262 104.8C5.26674 108.154 6.86814 111.247 9.26838 113.655C11.6686 116.063 14.7508 117.67 18.0947 118.256C21.4385 118.842 24.8811 118.379 27.9529 116.93C31.0248 115.48 33.5763 113.116 35.2594 110.159C36.9426 107.201 37.6755 103.795 37.3581 100.404L37.4433 100.485C37.2048 97.6508 37.5858 94.7984 38.5595 92.127C39.5332 89.4556 41.0763 87.0296 43.081 85.0183C45.0858 83.007 47.5038 81.4589 50.1665 80.482C52.8292 79.505 55.6722 79.1229 58.4973 79.3621Z" fill="#36AF84"/>
<path d="M28.4368 70.3305C30.1368 68.615 31.4384 66.5442 32.2486 64.2658C33.0588 61.9874 33.3577 59.5576 33.1239 57.15L33.2091 57.231C32.9705 54.3958 33.3516 51.5426 34.3258 48.8705C35.3001 46.1984 36.844 43.7719 38.8497 41.7605C40.8555 39.749 43.2747 38.2011 45.9384 37.2248C48.6022 36.2485 51.4463 35.8673 54.2721 36.108L54.1869 36.027C57.5653 36.3445 60.9591 35.6088 63.9055 33.9203C66.8519 32.2317 69.2074 29.6724 70.6509 26.5915C72.0944 23.5105 72.5555 20.0579 71.9714 16.7044C71.3873 13.3509 69.7864 10.2597 67.3871 7.85248C64.9877 5.44524 61.9067 3.83911 58.5641 3.2531C55.2215 2.66709 51.7802 3.12974 48.7093 4.57795C45.6384 6.02616 43.0875 8.38942 41.4045 11.3455C39.7214 14.3015 38.9882 17.7065 39.3046 21.096L39.2239 21.015C39.4624 23.8493 39.0815 26.7017 38.1077 29.3731C37.134 32.0445 35.5909 34.4705 33.5862 36.4818C31.5815 38.4931 29.1634 40.0412 26.5007 41.0181C23.8381 41.9951 20.995 42.3772 18.1699 42.138L18.2507 42.219C15.4903 41.9706 12.7121 42.4253 10.1735 43.541C7.63491 44.6566 5.41807 46.3971 3.72841 48.6011C2.03876 50.8051 0.930948 53.4014 0.507646 56.1493C0.0843448 58.8973 0.359244 61.7079 1.30687 64.3209C2.2545 66.9338 3.8442 69.2645 5.92865 71.097C8.01311 72.9295 10.5249 74.2044 13.2312 74.8037C15.9375 75.403 18.7508 75.3072 21.4104 74.5253C24.07 73.7433 26.4899 72.3005 28.4457 70.3305H28.4368Z" fill="#36AF84"/>
<path d="M167.378 25.4475H180.699V90.486H167.378V25.4475Z" fill="#222222"/>
<path d="M188.243 68.2155C188.225 63.5416 189.589 58.9673 192.164 55.072C194.738 51.1767 198.407 48.1357 202.706 46.3341C207.005 44.5325 211.74 44.0514 216.311 44.9518C220.882 45.8521 225.085 48.0934 228.385 51.3917C231.686 54.6901 233.937 58.897 234.853 63.4798C235.768 68.0625 235.308 72.8149 233.529 77.1348C231.751 81.4547 228.735 85.1479 224.862 87.7466C220.99 90.3453 216.436 91.7325 211.778 91.7325C208.685 91.7679 205.617 91.1845 202.752 90.0163C199.887 88.8482 197.282 87.1188 195.091 84.9292C192.9 82.7396 191.166 80.1338 189.99 77.2641C188.814 74.3943 188.22 71.3182 188.243 68.2155ZM221.991 68.2155C221.935 66.2009 221.289 64.2474 220.133 62.5992C218.977 60.9511 217.362 59.6814 215.49 58.949C213.619 58.2165 211.574 58.0538 209.611 58.4811C207.647 58.9085 205.853 59.9069 204.453 61.3516C203.052 62.7963 202.107 64.6232 201.736 66.6039C201.364 68.5846 201.583 70.6311 202.365 72.4877C203.146 74.3443 204.456 75.9285 206.13 77.0423C207.805 78.1562 209.769 78.7501 211.778 78.75C213.153 78.7869 214.522 78.5374 215.797 78.0172C217.071 77.497 218.225 76.7174 219.185 75.7277C220.144 74.7379 220.889 73.5594 221.372 72.2665C221.855 70.9735 222.065 69.5942 221.991 68.2155Z" fill="#222222"/>
<path d="M288.404 45.9404V88.2404C288.404 103.207 276.77 109.534 264.96 109.534C260.802 109.847 256.638 109.004 252.926 107.099C249.214 105.194 246.096 102.3 243.915 98.7344L255.281 92.1419C256.197 94.0005 257.658 95.5338 259.467 96.5366C261.276 97.5394 263.348 97.964 265.404 97.7534C266.718 97.9361 268.056 97.82 269.32 97.4137C270.583 97.0074 271.739 96.3213 272.703 95.4062C273.666 94.491 274.412 93.3702 274.885 92.1268C275.359 90.8833 275.547 89.5489 275.437 88.2224V84.1499C273.878 86.0648 271.892 87.5862 269.64 88.592C267.388 89.5978 264.933 90.06 262.47 89.9414C256.612 89.7561 251.055 87.2908 246.976 83.0674C242.897 78.844 240.616 73.194 240.616 67.3132C240.616 61.4324 242.897 55.7823 246.976 51.559C251.055 47.3356 256.612 44.8703 262.47 44.6849C264.933 44.5664 267.388 45.0286 269.64 46.0343C271.892 47.0401 273.878 48.5615 275.437 50.4764V45.9314L288.404 45.9404ZM275.442 67.3199C275.531 65.166 274.976 63.0346 273.848 61.1998C272.72 59.365 271.071 57.911 269.112 57.0247C267.153 56.1385 264.975 55.8607 262.857 56.227C260.74 56.5933 258.78 57.587 257.23 59.0803C255.68 60.5735 254.612 62.4978 254.161 64.6057C253.711 66.7136 253.899 68.9084 254.703 70.9079C255.506 72.9073 256.887 74.6198 258.669 75.8249C260.451 77.03 262.551 77.6725 264.7 77.6699C266.099 77.7679 267.504 77.5707 268.823 77.0911C270.142 76.6114 271.346 75.8598 272.358 74.8848C273.37 73.9098 274.167 72.7329 274.699 71.43C275.23 70.1271 275.483 68.727 275.442 67.3199Z" fill="#222222"/>
<path d="M295.949 68.2155C295.93 63.5416 297.294 58.9673 299.869 55.072C302.444 51.1767 306.113 48.1357 310.411 46.3341C314.71 44.5325 319.445 44.0514 324.016 44.9518C328.588 45.8521 332.79 48.0934 336.091 51.3917C339.391 54.6901 341.642 58.897 342.558 63.4798C343.474 68.0625 343.013 72.8149 341.235 77.1348C339.456 81.4547 336.44 85.1479 332.568 87.7466C328.695 90.3453 324.142 91.7325 319.483 91.7325C316.391 91.7679 313.322 91.1845 310.457 90.0163C307.592 88.8482 304.988 87.1188 302.797 84.9292C300.605 82.7396 298.871 80.1338 297.695 77.2641C296.52 74.3943 295.926 71.3182 295.949 68.2155ZM329.696 68.2155C329.64 66.2009 328.994 64.2474 327.838 62.5992C326.682 60.9511 325.067 59.6814 323.196 58.949C321.324 58.2165 319.279 58.0538 317.316 58.4811C315.353 58.9085 313.559 59.9069 312.158 61.3516C310.757 62.7963 309.812 64.6232 309.441 66.6039C309.07 68.5846 309.288 70.6311 310.07 72.4877C310.852 74.3443 312.161 75.9285 313.836 77.0423C315.51 78.1562 317.474 78.7501 319.483 78.75C320.859 78.7869 322.227 78.5374 323.502 78.0172C324.777 77.497 325.93 76.7174 326.89 75.7277C327.849 74.7379 328.594 73.5594 329.077 72.2665C329.56 70.9735 329.771 69.5942 329.696 68.2155Z" fill="#222222"/>
<path d="M349.229 34.0019C349.229 32.4159 349.698 30.8655 350.577 29.5468C351.455 28.2281 352.703 27.2003 354.164 26.5933C355.624 25.9864 357.231 25.8276 358.782 26.137C360.332 26.4464 361.756 27.2102 362.874 28.3316C363.992 29.4531 364.753 30.882 365.062 32.4375C365.37 33.993 365.212 35.6054 364.607 37.0707C364.002 38.5359 362.977 39.7883 361.663 40.6695C360.348 41.5506 358.803 42.0209 357.222 42.0209C355.109 41.9998 353.088 41.1482 351.594 39.6489C350.099 38.1496 349.251 36.1222 349.229 34.0019ZM350.575 45.9404H363.901V90.4904H350.557L350.575 45.9404Z" fill="#222222"/>
<path d="M421.42 68.2155C421.574 71.1598 421.147 74.1055 420.162 76.8834C419.177 79.6612 417.655 82.2164 415.682 84.4019C413.71 86.5874 411.326 88.3602 408.668 89.6182C406.011 90.8763 403.131 91.5948 400.196 91.7325C397.727 91.8676 395.26 91.45 392.972 90.5098C390.684 89.5695 388.633 88.1303 386.969 86.2965V108.306H373.647V45.9405H386.969V50.1255C388.634 48.293 390.685 46.855 392.973 45.9156C395.26 44.9762 397.728 44.559 400.196 44.694C403.132 44.8311 406.012 45.5494 408.67 46.8075C411.329 48.0657 413.713 49.8388 415.685 52.025C417.658 54.2111 419.18 56.767 420.164 59.5456C421.149 62.3243 421.575 65.2708 421.42 68.2155ZM408.099 68.2155C408.047 66.1306 407.383 64.1073 406.191 62.399C404.998 60.6907 403.33 59.3732 401.395 58.6115C399.459 57.8497 397.343 57.6775 395.311 58.1165C393.279 58.5554 391.421 59.586 389.969 61.0792C388.518 62.5723 387.538 64.4618 387.152 66.5111C386.765 68.5604 386.99 70.6785 387.798 72.6003C388.606 74.522 389.96 76.1621 391.692 77.3152C393.425 78.4683 395.457 79.0833 397.536 79.083C398.963 79.1467 400.388 78.9071 401.716 78.3798C403.045 77.8525 404.247 77.0495 405.244 76.0233C406.242 74.9972 407.011 73.7712 407.503 72.4256C407.995 71.08 408.198 69.6453 408.099 68.2155Z" fill="#222222"/>
<path d="M462.528 77.1211C462.528 87.3676 453.652 91.7326 444.062 91.7326C440.188 92.0847 436.297 91.2626 432.893 89.3725C429.489 87.4825 426.728 84.6114 424.968 81.1306L436.509 74.5381C436.976 76.147 437.979 77.5467 439.35 78.5032C440.721 79.4598 442.378 79.9154 444.044 79.7941C447.238 79.7941 448.839 78.8131 448.839 77.0356C448.839 72.1306 426.991 74.7181 426.991 59.3056C426.991 49.5901 435.163 44.6941 444.399 44.6941C447.87 44.5839 451.308 45.41 454.353 47.0864C457.398 48.7628 459.939 51.228 461.712 54.2251L450.346 60.3721C449.848 59.2052 449.018 58.2112 447.96 57.5142C446.903 56.8173 445.664 56.448 444.399 56.4526C442.089 56.4526 440.667 57.3526 440.667 58.9456C440.685 64.0261 462.528 60.6376 462.528 77.1211Z" fill="#222222"/>
<path d="M511.189 45.9404V90.4904H497.868V86.3009C496.331 88.1496 494.379 89.6061 492.173 90.5511C489.966 91.4961 487.568 91.9025 485.174 91.7369C476.204 91.7369 468.579 85.3244 468.579 73.2869V45.9404H481.9V71.3294C481.789 72.3905 481.909 73.4631 482.253 74.4727C482.596 75.4824 483.155 76.4048 483.89 77.1757C484.625 77.9466 485.519 78.5476 486.509 78.9368C487.499 79.326 488.562 79.4941 489.624 79.4294C494.508 79.4294 497.881 76.5809 497.881 70.2539V45.9539L511.189 45.9404Z" fill="#222222"/>
<path d="M587.574 63.135V90.486H574.252V64.2915C574.252 59.8365 572.122 56.988 567.861 56.988C563.42 56.988 560.931 60.1065 560.931 65.3625V90.486H547.614V64.2915C547.614 59.8365 545.484 56.988 541.218 56.988C536.778 56.988 534.293 60.1065 534.293 65.3625V90.486H520.971V45.936H534.293V50.031C535.674 48.2143 537.486 46.7736 539.565 45.8406C541.643 44.9075 543.922 44.5118 546.192 44.6895C548.472 44.5777 550.741 45.0602 552.779 46.0902C554.818 47.1202 556.555 48.6624 557.823 50.5665C559.299 48.5745 561.254 46.9905 563.506 45.9628C565.758 44.935 568.233 44.4969 570.7 44.6895C580.895 44.694 587.574 51.9975 587.574 63.135Z" fill="#222222"/>
<path d="M598.841 45.6661C604.3 45.6661 608.726 41.2256 608.726 35.7481C608.726 30.2705 604.3 25.8301 598.841 25.8301C593.381 25.8301 588.955 30.2705 588.955 35.7481C588.955 41.2256 593.381 45.6661 598.841 45.6661Z" fill="#222222"/>
</svg>
